<?xml version="1.0" encoding="UTF-8" standalone="no" ?>
<!DOCTYPE svg PUBLIC "-//W3C//DTD SVG 1.1//EN" "http://www.w3.org/Graphics/SVG/1.1/DTD/svg11.dtd">
<svg xmlns="http://www.w3.org/2000/svg" xmlns:xlink="http://www.w3.org/1999/xlink" version="1.1" width="1024" height="768" viewBox="0 0 640 480" xml:space="preserve">
<desc>Created with Fabric.js 3.6.3</desc>
<defs>
</defs>
<rect x="0" y="0" width="100%" height="100%" fill="rgba(255, 255, 255, 0)"></rect>
<g transform="matrix(1 0 0 1 107.15 75.78)"  >
<path style="stroke: rgb(255,255,255); stroke-width: 2; stroke-dasharray: none; stroke-linecap: butt; stroke-dashoffset: 0; stroke-linejoin: miter; stroke-miterlimit: 4; fill: rgb(255,255,255); fill-rule: nonzero; opacity: 1;"  transform=" translate(-106.15, -74.79)" d="M 94.35897435897435 121.02564102564102 Q 120.51282051282053 71.7948717948718 164.6153846153846 51.28205128205128 Q 118.97435897435895 0 47.692307692307686 4.615384615384615 Q 76.41025641025641 166.15384615384616 94.35897435897435 121.02564102564102" stroke-linecap="round" />
</g>
<g transform="matrix(0.88 0 0 0.83 315.61 267.57)"  >
<g style=""   >
		<g transform="matrix(1 0 0 1 0.1 -136.2)"  >
<path style="stroke: rgb(0,0,0); stroke-width: 1; stroke-dasharray: none; stroke-linecap: butt; stroke-dashoffset: 0; stroke-linejoin: miter; stroke-miterlimit: 4; fill: rgb(255,255,255); fill-rule: nonzero; opacity: 1;"  transform=" translate(-256.1, -119.8)" d="m 480.7 228.6 h -449.2 c -11.3 0 -20.4 -9.1 -20.4 -20.4 v -29.7 c -1.77636e-15 -92.4 75.1 -167.5 167.4 -167.5 h 155.1 c 92.3 0 167.5 75.1 167.5 167.5 v 29.7 c 0 11.2 -9.2 20.4 -20.4 20.4 z m -428.8 -40.9 h 408.3 v -9.3 c 0 -69.8 -56.8 -126.6 -126.6 -126.6 h -155.1 c -69.8 0 -126.6 56.8 -126.6 126.6 v 9.3 z" stroke-linecap="round" />
</g>
		<g transform="matrix(1 0 0 1 0.05 174.9)"  >
<path style="stroke: rgb(0,0,0); stroke-width: 1; stroke-dasharray: none; stroke-linecap: butt; stroke-dashoffset: 0; stroke-linejoin: miter; stroke-miterlimit: 4; fill: rgb(255,255,255); fill-rule: nonzero; opacity: 1;"  transform=" translate(-256.05, -430.9)" d="M 435.4 501 H 76.7 c -36.2 0 -65.6 -29.4 -65.6 -65.6 v -54.2 c 0 -11.3 9.1 -20.4 20.4 -20.4 h 449.1 c 11.3 0 20.4 9.1 20.4 20.4 v 54.2 C 501.1 471.6 471.6 501 435.4 501 z M 51.9 401.6 v 33.8 c 0 13.7 11.1 24.8 24.8 24.8 h 358.7 c 13.7 0 24.8 -11.1 24.8 -24.8 v -33.8 H 51.9 z" stroke-linecap="round" />
</g>
		<g transform="matrix(1 0 0 1 0.15 36.83)"  >
<path style="stroke: rgb(0,0,0); stroke-width: 1; stroke-dasharray: none; stroke-linecap: butt; stroke-dashoffset: 0; stroke-linejoin: miter; stroke-miterlimit: 4; fill: rgb(255,255,255); fill-rule: nonzero; opacity: 1;"  transform=" translate(-256.15, -292.83)" d="m 31.5 334.7 c -7.2 0 -14.2 -3.8 -17.9 -10.6 c -5.4 -9.9 -1.8 -22.3 8.1 -27.7 l 42 -23 c 25.1 -13.8 56.3 -13.8 81.5 0 c 13 7.1 29.2 7.1 42.2 0 l 18.9 -10.4 c 25.1 -13.8 56.4 -13.8 81.5 0 l 17.5 9.6 c 13 7.1 29.2 7.1 42.2 0 l 20.5 -11.3 c 25.1 -13.8 56.3 -13.8 81.5 0 l 41.1 22.6 c 9.9 5.4 13.5 17.8 8.1 27.7 c -5.4 9.9 -17.8 13.5 -27.7 8.1 l -41.1 -22.5 c -13 -7.1 -29.2 -7.1 -42.2 0 l -20.5 11.3 c -25.1 13.8 -56.3 13.8 -81.5 0 l -17.5 -9.6 c -13 -7.1 -29.2 -7.1 -42.2 0 l -19 10.2 c -25.1 13.8 -56.4 13.8 -81.5 0 c -13 -7.1 -29.2 -7.1 -42.2 0 l -42 23 c -3.1 1.8 -6.5 2.6 -9.8 2.6 z" stroke-linecap="round" />
</g>
</g>
</g>
<g transform="matrix(-1 0 0 1 524.48 80.03)"  >
<path style="stroke: rgb(0,0,0); stroke-width: 2; stroke-dasharray: none; stroke-linecap: butt; stroke-dashoffset: 0; stroke-linejoin: miter; stroke-miterlimit: 4; fill: rgb(255,255,255); fill-rule: nonzero; opacity: 1;"  transform=" translate(-106.15, -74.79)" d="M 94.35897435897435 121.02564102564102 Q 120.51282051282053 71.7948717948718 164.6153846153846 51.28205128205128 Q 118.97435897435895 0 47.692307692307686 4.615384615384615 Q 76.41025641025641 166.15384615384616 94.35897435897435 121.02564102564102" stroke-linecap="round" />
</g>
</svg>